<?xml version="1.0" encoding="UTF-8" standalone="no"?>
<!-- Created with Inkscape (http://www.inkscape.org/) -->

<svg
   xmlns:dc="http://purl.org/dc/elements/1.1/"
   xmlns:cc="http://creativecommons.org/ns#"
   xmlns:rdf="http://www.w3.org/1999/02/22-rdf-syntax-ns#"
   xmlns:svg="http://www.w3.org/2000/svg"
   xmlns="http://www.w3.org/2000/svg"
   xmlns:sodipodi="http://sodipodi.sourceforge.net/DTD/sodipodi-0.dtd"
   xmlns:inkscape="http://www.inkscape.org/namespaces/inkscape"
   width="700mm"
   height="700mm"
   viewBox="0 0 700 700"
   version="1.1"
   id="svg1019"
   inkscape:export-filename="C:\Users\suitedoalex\sites\autoglass-logo-0.png"
   inkscape:export-xdpi="148.6263"
   inkscape:export-ydpi="148.6263"
   inkscape:version="0.92.4 (5da689c313, 2019-01-14)"
   sodipodi:docname="autoglass-logo.svg">
  <defs
     id="defs1013" />
  <sodipodi:namedview
     id="base"
     pagecolor="#ffffff"
     bordercolor="#666666"
     borderopacity="1.0"
     inkscape:pageopacity="0.0"
     inkscape:pageshadow="2"
     inkscape:zoom="0.175"
     inkscape:cx="1239.8891"
     inkscape:cy="1442.6935"
     inkscape:document-units="mm"
     inkscape:current-layer="layer1"
     showgrid="false"
     inkscape:window-width="1600"
     inkscape:window-height="837"
     inkscape:window-x="-8"
     inkscape:window-y="-8"
     inkscape:window-maximized="1" />
  <metadata
     id="metadata1016">
    <rdf:RDF>
      <cc:Work
         rdf:about="">
        <dc:format>image/svg+xml</dc:format>
        <dc:type
           rdf:resource="http://purl.org/dc/dcmitype/StillImage" />
        <dc:title></dc:title>
      </cc:Work>
    </rdf:RDF>
  </metadata>
  <g
     inkscape:label="Layer 1"
     inkscape:groupmode="layer"
     id="layer1"
     transform="translate(0,403)">
    <g
       id="g54"
       transform="matrix(6.2353443,0,0,-6.2353443,613.66777,-25.837905)"
       inkscape:export-xdpi="19.063351"
       inkscape:export-ydpi="19.063351">
      <path
         d="m 0,0 -8.149,14.737 c -1.909,3.655 -5.461,6.315 -9.677,6.996 l -0.001,0.001 c 0,0 -0.05,0.008 -0.056,0.008 -7.948,1.264 -16.098,1.925 -24.403,1.925 -8.304,0 -16.454,-0.661 -24.402,-1.925 -0.007,0 -0.056,-0.008 -0.056,-0.008 l -0.002,-0.001 c -4.216,-0.681 -7.768,-3.341 -9.676,-6.996 L -84.572,0 c -0.284,-0.471 -0.451,-1.022 -0.451,-1.612 0,-1.729 1.402,-3.131 3.13,-3.131 h 0.002 13.593 l 4.412,10.038 h 8.056 l -2.848,-10.038 h 55.997 0.002 c 1.729,0 3.13,1.402 3.13,3.131 C 0.451,-1.022 0.285,-0.471 0,0 m -54.095,11.419 h -7.098 l 3.589,8.165 h 5.825 z"
         style="fill:#164194;fill-opacity:1;fill-rule:nonzero;stroke:none"
         id="path56"
         inkscape:connector-curvature="0" />
    </g>
    <g
       id="g58"
       transform="matrix(6.2353443,0,0,-6.2353443,142.94169,47.032693)"
       inkscape:export-xdpi="19.063351"
       inkscape:export-ydpi="19.063351">
      <path
         d="M 0,0 H 2.214 L 1.382,2.694 C 1.357,2.776 1.32,2.907 1.277,3.09 1.23,3.271 1.174,3.505 1.104,3.792 1.057,3.591 1.009,3.4 0.961,3.218 0.915,3.035 0.868,2.862 0.819,2.694 Z m -3.119,-3.051 2.818,8.165 H 2.487 L 5.31,-3.051 H 3.095 L 2.682,-1.59 H -0.48 L -0.904,-3.051 Z M 6.197,5.114 H 8.418 V 1.142 c 0,-0.584 0.015,-1.003 0.044,-1.258 0.03,-0.254 0.08,-0.466 0.152,-0.638 0.083,-0.207 0.234,-0.367 0.446,-0.478 0.211,-0.108 0.469,-0.163 0.774,-0.163 0.305,0 0.562,0.055 0.773,0.163 0.209,0.111 0.36,0.271 0.448,0.478 0.072,0.172 0.121,0.384 0.152,0.638 0.028,0.255 0.043,0.674 0.043,1.258 V 1.7 5.114 h 2.214 V 0.796 c 0,-0.895 -0.053,-1.556 -0.162,-1.982 -0.108,-0.426 -0.288,-0.788 -0.546,-1.091 -0.277,-0.329 -0.662,-0.578 -1.148,-0.744 -0.487,-0.166 -1.079,-0.247 -1.774,-0.247 -0.699,0 -1.291,0.081 -1.775,0.247 -0.487,0.166 -0.871,0.415 -1.154,0.744 -0.252,0.303 -0.433,0.665 -0.544,1.091 -0.108,0.426 -0.164,1.087 -0.164,1.982 v 0.849 z m 10.491,-8.165 v 6.234 h -1.829 v 1.931 h 5.885 V 3.183 h -1.829 v -6.234 z m 13.683,4.066 c 0,-0.589 -0.108,-1.139 -0.323,-1.651 -0.215,-0.513 -0.529,-0.973 -0.943,-1.378 -0.417,-0.402 -0.893,-0.71 -1.427,-0.929 -0.536,-0.217 -1.091,-0.325 -1.668,-0.325 -0.585,0 -1.143,0.108 -1.676,0.325 -0.534,0.219 -1.003,0.527 -1.408,0.929 -0.421,0.405 -0.739,0.866 -0.958,1.384 -0.217,0.516 -0.325,1.064 -0.325,1.645 0,0.584 0.108,1.133 0.325,1.649 0.219,0.513 0.537,0.974 0.958,1.38 0.405,0.401 0.874,0.71 1.408,0.929 0.533,0.217 1.091,0.325 1.676,0.325 0.58,0 1.137,-0.108 1.675,-0.325 0.539,-0.219 1.01,-0.528 1.42,-0.929 0.41,-0.402 0.721,-0.861 0.941,-1.379 0.217,-0.516 0.325,-1.066 0.325,-1.65 M 26.01,-1.384 c 0.617,0 1.127,0.227 1.531,0.679 0.402,0.456 0.605,1.029 0.605,1.72 0,0.683 -0.205,1.254 -0.613,1.713 -0.41,0.457 -0.918,0.685 -1.523,0.685 -0.617,0 -1.127,-0.228 -1.531,-0.683 -0.404,-0.455 -0.605,-1.028 -0.605,-1.715 0,-0.699 0.197,-1.274 0.596,-1.723 0.397,-0.451 0.911,-0.676 1.54,-0.676 m 9.994,1.34 v 1.712 h 4.373 c 0.004,-0.056 0.008,-0.118 0.01,-0.185 0.002,-0.066 0.002,-0.165 0.002,-0.295 0,-1.407 -0.371,-2.498 -1.113,-3.272 -0.742,-0.775 -1.785,-1.164 -3.13,-1.164 -0.664,0 -1.252,0.099 -1.765,0.299 -0.517,0.198 -0.978,0.503 -1.381,0.912 -0.389,0.391 -0.687,0.853 -0.902,1.386 -0.213,0.533 -0.321,1.093 -0.321,1.677 0,0.609 0.106,1.169 0.313,1.681 0.207,0.513 0.518,0.971 0.931,1.38 0.409,0.399 0.879,0.699 1.409,0.905 0.529,0.204 1.1,0.306 1.716,0.306 0.798,0 1.505,-0.158 2.12,-0.474 0.615,-0.316 1.132,-0.786 1.553,-1.411 l -1.93,-0.925 c -0.231,0.317 -0.49,0.551 -0.778,0.705 -0.289,0.154 -0.611,0.232 -0.965,0.232 -0.667,0 -1.191,-0.223 -1.574,-0.666 -0.383,-0.445 -0.575,-1.053 -0.575,-1.822 0,-0.777 0.192,-1.39 0.575,-1.835 0.383,-0.448 0.907,-0.67 1.574,-0.67 0.563,0 1.035,0.139 1.412,0.417 0.377,0.276 0.597,0.645 0.66,1.107 z m 6.105,-3.007 v 8.165 h 2.225 v -6.258 h 2.767 V -3.051 Z M 50.704,0 h 2.214 L 52.087,2.694 C 52.062,2.776 52.025,2.907 51.981,3.09 51.936,3.271 51.879,3.505 51.809,3.792 51.761,3.591 51.713,3.4 51.666,3.218 51.619,3.035 51.572,2.862 51.524,2.694 Z m -3.118,-3.051 2.817,8.165 h 2.789 l 2.822,-8.165 H 53.799 L 53.387,-1.59 H 50.225 L 49.8,-3.051 Z m 9.928,2.638 c 0.331,-0.375 0.658,-0.657 0.98,-0.842 0.321,-0.186 0.642,-0.279 0.961,-0.279 0.297,0 0.543,0.08 0.733,0.24 0.192,0.16 0.288,0.361 0.288,0.607 0,0.272 -0.081,0.482 -0.247,0.628 -0.166,0.147 -0.541,0.299 -1.125,0.455 -0.798,0.215 -1.364,0.497 -1.696,0.842 -0.33,0.346 -0.496,0.82 -0.496,1.422 0,0.78 0.261,1.418 0.784,1.911 0.522,0.493 1.2,0.739 2.032,0.739 0.451,0 0.877,-0.061 1.281,-0.181 0.404,-0.122 0.784,-0.305 1.146,-0.551 l -0.697,-1.6 C 61.205,3.193 60.946,3.357 60.68,3.467 60.413,3.575 60.15,3.631 59.892,3.631 59.623,3.631 59.405,3.566 59.238,3.438 59.07,3.31 58.987,3.146 58.987,2.945 c 0,-0.205 0.075,-0.369 0.221,-0.491 0.146,-0.123 0.43,-0.24 0.85,-0.352 l 0.099,-0.029 c 0.908,-0.243 1.505,-0.514 1.79,-0.807 0.195,-0.202 0.341,-0.441 0.443,-0.723 0.1,-0.28 0.15,-0.592 0.15,-0.933 0,-0.866 -0.284,-1.563 -0.853,-2.089 -0.57,-0.527 -1.327,-0.789 -2.276,-0.789 -0.568,0 -1.087,0.096 -1.553,0.288 -0.465,0.195 -0.916,0.497 -1.347,0.911 z m 6.994,0 c 0.331,-0.375 0.658,-0.657 0.98,-0.842 0.322,-0.186 0.642,-0.279 0.962,-0.279 0.296,0 0.542,0.08 0.733,0.24 0.192,0.16 0.287,0.361 0.287,0.607 0,0.272 -0.082,0.482 -0.247,0.628 -0.166,0.147 -0.541,0.299 -1.123,0.455 -0.801,0.215 -1.366,0.497 -1.697,0.842 -0.332,0.346 -0.497,0.82 -0.497,1.422 0,0.78 0.261,1.418 0.784,1.911 0.523,0.493 1.2,0.739 2.032,0.739 0.451,0 0.878,-0.061 1.281,-0.181 0.403,-0.122 0.784,-0.305 1.146,-0.551 l -0.697,-1.6 C 68.199,3.193 67.94,3.357 67.674,3.467 67.407,3.575 67.145,3.631 66.885,3.631 66.617,3.631 66.4,3.566 66.232,3.438 66.065,3.31 65.981,3.146 65.981,2.945 c 0,-0.205 0.075,-0.369 0.221,-0.491 0.147,-0.123 0.43,-0.24 0.849,-0.352 l 0.101,-0.029 c 0.909,-0.243 1.504,-0.514 1.789,-0.807 0.195,-0.202 0.341,-0.441 0.443,-0.723 0.1,-0.28 0.149,-0.592 0.149,-0.933 0,-0.866 -0.283,-1.563 -0.852,-2.089 -0.57,-0.527 -1.327,-0.789 -2.276,-0.789 -0.569,0 -1.087,0.096 -1.552,0.288 -0.467,0.195 -0.916,0.497 -1.348,0.911 z"
         style="fill:#000000;fill-opacity:1;fill-rule:nonzero;stroke:none"
         id="path60"
         inkscape:connector-curvature="0" />
    </g>
  </g>
</svg>
